# xmcd
# 
# Track frame offsets:
#     150
#     2498
#     5596
#     9589
#     12565
#     16286
#     19186
#     22655
#     26082
#     29808
#     33088
#     36229
#     39752
#     42755
#     45978
#     49525
#     53028
#     56569
#     59913
#     63335
#     66609
#     70271
#     73349
#     76698
#     80164
#     83576
#     86887
#     90486
#     93801
#     97121
#     100320
#     103966
#     107061
#     110696
#     113621
#     117204
#     120369
#     123873
#     127286
#     130658
#     134120
#     137651
#     141024
#     144266
#     147428
#     150849
#     154067
#     157959
#     161148
#     164346
#     167783
#     171496
#     174650
#     178002
#     181279
#     184920
#     188263
#     191217
#     194629
#     198094
#     201441
#     204775
#     208177
#     211556
#     215201
#     218310
#     221810
#     225434
#     228703
#     231877
#     235565
#     238775
#     242143
#     245230
#     248804
#     252033
#     255479
#     258907
#     262164
#     265794
#     269278
#     272650
#     275974
#     279340
#     282711
#     286270
#     289524
#     292686
#     296107
#     299370
#     303118
#     306177
#     309492
#     313006
#     316638
#     319596
#     322870
#     326615
#     330666
# 
# Disc length: 4440
# 
# Revision: 3
# Processed by: cddbd v1.5.2PL0 Copyright (c) Steve Scherf et al.
# Submitted via: fre:ac v1.0.27
# 
DISCID=af115663
DTITLE=Campbell, Jack - Dauntless
DYEAR=2008
DGENRE=Audiobook
TTITLE0=0401
TTITLE1=0402
TTITLE2=0403
TTITLE3=0404
TTITLE4=0405
TTITLE5=0406
TTITLE6=0407
TTITLE7=0408
TTITLE8=0409
TTITLE9=0410
TTITLE10=0411
TTITLE11=0412
TTITLE12=0413
TTITLE13=0414
TTITLE14=0415
TTITLE15=0416
TTITLE16=0417
TTITLE17=0418
TTITLE18=0419
TTITLE19=0420
TTITLE20=0421
TTITLE21=0422
TTITLE22=0423
TTITLE23=0424
TTITLE24=0425
TTITLE25=0426
TTITLE26=0427
TTITLE27=0428
TTITLE28=0429
TTITLE29=0430
TTITLE30=0431
TTITLE31=0432
TTITLE32=0433
TTITLE33=0434
TTITLE34=0435
TTITLE35=0436
TTITLE36=0437
TTITLE37=0438
TTITLE38=0439
TTITLE39=0440
TTITLE40=0441
TTITLE41=0442
TTITLE42=0443
TTITLE43=0444
TTITLE44=0445
TTITLE45=0446
TTITLE46=0447
TTITLE47=0448
TTITLE48=0449
TTITLE49=0450
TTITLE50=0451
TTITLE51=0452
TTITLE52=0453
TTITLE53=0454
TTITLE54=0455
TTITLE55=0456
TTITLE56=0457
TTITLE57=0458
TTITLE58=0459
TTITLE59=0460
TTITLE60=0461
TTITLE61=0462
TTITLE62=0463
TTITLE63=0464
TTITLE64=0465
TTITLE65=0466
TTITLE66=0467
TTITLE67=0468
TTITLE68=0469
TTITLE69=0470
TTITLE70=0471
TTITLE71=0472
TTITLE72=0473
TTITLE73=0474
TTITLE74=0475
TTITLE75=0476
TTITLE76=0477
TTITLE77=0478
TTITLE78=0479
TTITLE79=0480
TTITLE80=0481
TTITLE81=0482
TTITLE82=0483
TTITLE83=0484
TTITLE84=0485
TTITLE85=0486
TTITLE86=0487
TTITLE87=0488
TTITLE88=0489
TTITLE89=0490
TTITLE90=0491
TTITLE91=0492
TTITLE92=0493
TTITLE93=0494
TTITLE94=0495
TTITLE95=0496
TTITLE96=0497
TTITLE97=0498
TTITLE98=0499
EXTD=
EXTT0=
EXTT1=
EXTT2=
EXTT3=
EXTT4=
EXTT5=
EXTT6=
EXTT7=
EXTT8=
EXTT9=
EXTT10=
EXTT11=
EXTT12=
EXTT13=
EXTT14=
EXTT15=
EXTT16=
EXTT17=
EXTT18=
EXTT19=
EXTT20=
EXTT21=
EXTT22=
EXTT23=
EXTT24=
EXTT25=
EXTT26=
EXTT27=
EXTT28=
EXTT29=
EXTT30=
EXTT31=
EXTT32=
EXTT33=
EXTT34=
EXTT35=
EXTT36=
EXTT37=
EXTT38=
EXTT39=
EXTT40=
EXTT41=
EXTT42=
EXTT43=
EXTT44=
EXTT45=
EXTT46=
EXTT47=
EXTT48=
EXTT49=
EXTT50=
EXTT51=
EXTT52=
EXTT53=
EXTT54=
EXTT55=
EXTT56=
EXTT57=
EXTT58=
EXTT59=
EXTT60=
EXTT61=
EXTT62=
EXTT63=
EXTT64=
EXTT65=
EXTT66=
EXTT67=
EXTT68=
EXTT69=
EXTT70=
EXTT71=
EXTT72=
EXTT73=
EXTT74=
EXTT75=
EXTT76=
EXTT77=
EXTT78=
EXTT79=
EXTT80=
EXTT81=
EXTT82=
EXTT83=
EXTT84=
EXTT85=
EXTT86=
EXTT87=
EXTT88=
EXTT89=
EXTT90=
EXTT91=
EXTT92=
EXTT93=
EXTT94=
EXTT95=
EXTT96=
EXTT97=
EXTT98=
PLAYORDER=
